HIERARCHY
ROOT root
{
	OFFSET 0.000000 0.000000 0.000000
	CHANNELS 6 Xposition Yposition Zposition Zrotation Yrotation Xrotation
	JOINT lhip
	{
		OFFSET 0.058581 -0.082280 -0.017664
		CHANNELS 3 Zrotation Yrotation Xrotation
		JOINT lknee
		{
			OFFSET 0.043451 -0.386469 0.008037
			CHANNELS 3 Zrotation Yrotation Xrotation
			JOINT lankle
			{
				OFFSET -0.014790 -0.426874 -0.037428
				CHANNELS 3 Zrotation Yrotation Xrotation
				JOINT ltoe
				{
					OFFSET 0.041054 -0.060286 0.122042
					CHANNELS 3 Zrotation Yrotation Xrotation
					End Site
					{
						OFFSET 0.000000 0.000000 0.000000
					}
				}
			}
		}
	}
	JOINT rhip
	{
		OFFSET -0.060310 -0.090513 -0.013543
		CHANNELS 3 Zrotation Yrotation Xrotation
		JOINT rknee
		{
			OFFSET -0.043257 -0.383688 -0.004843
			CHANNELS 3 Zrotation Yrotation Xrotation
			JOINT rankle
			{
				OFFSET 0.019056 -0.420046 -0.034562
				CHANNELS 3 Zrotation Yrotation Xrotation
				JOINT rtoe
				{
					OFFSET -0.034840 -0.062106 0.130323
					CHANNELS 3 Zrotation Yrotation Xrotation
					End Site
					{
						OFFSET 0.000000 0.000000 0.000000
					}
				}
			}
		}
	}
	JOINT lowerback
	{
		OFFSET 0.004439 0.124404 -0.038385
		CHANNELS 3 Zrotation Yrotation Xrotation
		JOINT upperback
		{
			OFFSET 0.004488 0.137956 0.026820
			CHANNELS 3 Zrotation Yrotation Xrotation
			JOINT chest
			{
				OFFSET -0.002265 0.056032 0.002855
				CHANNELS 3 Zrotation Yrotation Xrotation
				JOINT lowerneck
				{
					OFFSET -0.013390 0.211636 -0.033468
					CHANNELS 3 Zrotation Yrotation Xrotation
					JOINT upperneck
					{
						OFFSET 0.010113 0.088937 0.050410
						CHANNELS 3 Zrotation Yrotation Xrotation
						End Site
						{
							OFFSET 0.000000 0.000000 0.000000
						}
					}
				}
				JOINT lclavicle
				{
					OFFSET 0.071702 0.114000 -0.018898
					CHANNELS 3 Zrotation Yrotation Xrotation
					JOINT lshoulder
					{
						OFFSET 0.122921 0.045205 -0.019046
						CHANNELS 3 Zrotation Yrotation Xrotation
						JOINT lelbow
						{
							OFFSET 0.255332 -0.015649 -0.022946
							CHANNELS 3 Zrotation Yrotation Xrotation
							JOINT lwrist
							{
								OFFSET 0.265709 0.012698 -0.007375
								CHANNELS 3 Zrotation Yrotation Xrotation
								End Site
								{
									OFFSET 0.000000 0.000000 0.000000
								}
							}
						}
					}
				}
				JOINT rclavicle
				{
					OFFSET -0.082954 0.112472 -0.023707
					CHANNELS 3 Zrotation Yrotation Xrotation
					JOINT rshoulder
					{
						OFFSET -0.113228 0.046853 -0.008472
						CHANNELS 3 Zrotation Yrotation Xrotation
						JOINT relbow
						{
							OFFSET -0.260127 -0.014369 -0.031269
							CHANNELS 3 Zrotation Yrotation Xrotation
							JOINT rwrist
							{
								OFFSET -0.269108 0.006794 -0.006027
								CHANNELS 3 Zrotation Yrotation Xrotation
								End Site
								{
									OFFSET 0.000000 0.000000 0.000000
								}
							}
						}
					}
				}
			}
		}
	}
}
MOTION
Frames: 13
Frame Time: 0.033333
1.123576 0.398295 0.306429 -2.200220 2.542666 12.336355 28.097764 -6.240274 -51.205506 -22.616702 -1.224264 108.190137 3.298190 8.045505 -4.297406 0.000000 -0.000000 0.000000 -11.011025 1.948946 -57.882112 15.635348 -1.936293 115.127660 1.686959 -5.849139 13.055533 0.000000 -0.000000 0.000000 -0.518620 -3.765919 30.327660 2.314282 -1.623553 17.590666 2.855297 -1.158235 -1.832575 -14.134700 -3.103376 33.499354 10.503722 20.919771 -25.011086 -5.253987 13.873749 23.821668 -82.307270 25.951520 -36.495563 6.918983 -20.997377 -22.075963 75.256200 11.875090 2.220913 -5.823073 2.151590 29.549011 74.285775 -36.924640 -12.238909 11.923246 32.191089 24.254496 -67.120238 11.579167 -15.361330 
1.124177 0.393285 0.303506 -2.309645 2.721262 11.224577 28.483667 -7.055362 -50.939904 -22.279521 -0.830638 109.291191 3.078803 7.971176 -5.242868 0.000000 -0.000000 0.000000 -12.023723 2.504289 -57.333936 14.457971 -2.838852 116.126760 2.218542 -4.581662 12.092087 0.000000 -0.000000 0.000000 -0.074430 -3.402619 31.593883 3.251935 -1.527949 16.601872 2.895484 -1.147885 -1.877998 -13.472295 -1.863477 32.353807 10.611985 17.667162 -21.874299 -6.172802 13.182645 24.291053 -80.617377 25.714476 -35.781682 6.626045 -18.170609 -24.468307 73.581551 7.930383 1.662654 -7.934554 0.515970 28.440682 73.889737 -38.317077 -13.735135 12.410089 31.059940 24.448477 -64.228458 15.318674 -14.679939 
1.124585 0.386931 0.301326 -2.475207 2.767718 10.779425 28.703056 -7.162515 -51.105313 -22.466275 -0.619710 110.465097 3.092811 8.232900 -5.900675 0.000000 -0.000000 0.000000 -12.388021 2.724155 -57.264579 14.148037 -3.313649 117.000582 2.378717 -4.330120 11.574456 0.000000 -0.000000 0.000000 0.245021 -3.270513 32.283481 3.397538 -1.545086 15.471034 2.691967 -1.375887 -1.690237 -13.311713 -1.405647 31.643304 11.316757 16.328077 -20.044895 -6.070709 12.192138 25.371455 -81.067443 26.473078 -36.331458 5.985969 -17.808145 -25.141911 72.883677 6.980832 1.113331 -8.883722 0.144823 28.596862 73.672505 -39.165317 -14.485853 13.095324 31.183409 25.473781 -63.320045 16.348484 -14.568462 
1.125240 0.379029 0.298123 -2.603213 2.836726 10.355488 28.916318 -7.334685 -51.415086 -22.719130 -0.298162 111.739172 3.346115 8.519860 -6.435935 0.000000 -0.000000 0.000000 -12.715039 2.948079 -57.453348 14.278814 -3.851012 118.034208 2.382885 -4.478922 11.118892 0.000000 -0.000000 0.000000 0.557081 -3.110740 33.339854 3.122247 -1.426569 13.928400 2.141002 -2.365812 -1.092901 -13.217110 -2.463883 31.090896 11.966902 16.732169 -19.396355 -5.186323 12.001789 25.965448 -81.488057 28.026179 -37.494527 4.686125 -17.782917 -24.826860 72.880403 6.178615 0.878124 -8.684907 0.273108 28.120540 72.768568 -40.374612 -14.258540 13.350666 31.572085 25.328871 -62.614383 17.324416 -14.217673 
1.125600 0.374606 0.295868 -2.662829 2.963750 10.162150 29.049578 -7.466240 -51.795363 -22.896857 -0.097098 112.483843 3.522244 8.660015 -6.702560 0.000000 -0.000000 0.000000 -12.889694 3.015367 -57.660352 14.415896 -4.205529 118.605234 2.408881 -4.601191 10.931163 0.000000 -0.000000 0.000000 0.707313 -3.026578 33.880590 3.030514 -1.380094 13.114817 1.895579 -2.856995 -0.640411 -13.157383 -3.093992 30.641499 12.243023 16.678090 -19.085963 -4.876265 11.927608 26.247945 -81.617074 28.748272 -38.079747 4.069491 -17.695650 -24.697144 72.694958 5.675288 0.699589 -8.605742 0.224980 27.788322 72.253730 -40.979866 -14.291080 13.453321 31.705277 25.276499 -62.013334 17.980634 -14.025675 
1.126236 0.368700 0.292676 -2.699872 3.061400 9.893293 29.020372 -7.509648 -52.413602 -23.179169 0.114718 113.518887 3.767246 8.848329 -7.013617 0.000000 -0.000000 0.000000 -13.018538 3.171811 -57.994251 14.621324 -4.541551 119.304513 2.498128 -4.784707 10.750392 0.000000 -0.000000 0.000000 0.908353 -2.963562 34.690621 2.779361 -1.235556 11.691369 1.535488 -3.403057 0.261635 -12.960210 -3.859474 29.687882 12.714827 16.293343 -18.319823 -4.319600 11.965995 26.409123 -81.616454 29.781560 -38.922672 3.223974 -17.430986 -24.314740 72.225981 4.653872 0.531457 -8.742620 0.092109 27.279821 71.722237 -41.678364 -14.438562 13.645462 31.641998 25.362905 -61.121037 18.981045 -13.808389 
1.126932 0.363219 0.289320 -2.733463 3.157954 9.699673 29.015770 -7.476558 -53.119759 -23.466344 0.307638 114.495925 3.904230 8.938098 -7.230656 0.000000 -0.000000 0.000000 -13.040211 3.338954 -58.432535 14.813813 -4.717262 119.975704 2.570836 -4.943216 10.652547 0.000000 -0.000000 0.000000 0.998939 -2.894243 35.425985 2.573724 -1.149910 10.514292 1.274844 -3.832597 0.997820 -12.921472 -4.507880 29.068320 13.111812 15.844097 -17.843738 -3.860935 11.938788 26.720154 -81.778388 30.748891 -39.671167 2.337083 -17.431583 -23.877405 71.766211 4.026009 0.196673 -8.916909 0.039583 26.959172 71.308115 -42.262423 -14.647865 13.808341 31.679411 25.527771 -60.368235 19.700694 -13.675191 
1.127635 0.358160 0.285731 -2.770064 3.233455 9.606770 29.116258 -7.389577 -53.943530 -23.697111 0.542061 115.358376 3.918517 8.906867 -7.320717 0.000000 -0.000000 0.000000 -13.021154 3.542137 -59.040358 14.997635 -4.845915 120.607723 2.624546 -5.085992 10.655396 0.000000 -0.000000 0.000000 0.991969 -2.776209 36.196956 2.419933 -1.065510 9.359923 1.082535 -4.219429 1.579203 -12.963716 -5.128820 28.698599 13.454422 15.421807 -17.464744 -3.585658 11.900200 27.122023 -81.946161 31.721284 -40.372927 1.426427 -17.566491 -23.532005 71.284756 3.459264 -0.177006 -8.969706 0.012060 26.721530 70.839423 -42.838327 -14.898681 13.906431 31.760188 25.591067 -59.572302 20.374660 -13.527048 
1.128256 0.353539 0.281785 -2.815104 3.273607 9.652518 29.324125 -7.223196 -54.941480 -23.891905 0.813496 116.091557 3.813297 8.755854 -7.247264 0.000000 -0.000000 0.000000 -12.976425 3.786649 -59.879542 15.162879 -4.945976 121.191037 2.671591 -5.203037 10.780682 0.000000 -0.000000 0.000000 0.880093 -2.670914 37.048748 2.237811 -0.959340 8.084183 0.892919 -4.565429 2.088282 -13.031142 -5.752308 28.428101 13.831301 15.034351 -17.071878 -3.434293 11.960630 27.521739 -82.146370 32.695330 -41.182340 0.679715 -17.788697 -23.099445 70.680375 2.983273 -0.526300 -8.928301 0.014807 26.550037 70.349284 -43.280369 -15.148585 13.923391 31.825217 25.674277 -58.587207 20.958864 -13.342820 
1.128734 0.348724 0.276236 -2.878978 3.380849 9.950118 29.728566 -6.988404 -56.560589 -24.094260 1.161015 116.810556 3.553567 8.410458 -6.884813 0.000000 -0.000000 0.000000 -12.940345 4.155337 -61.274831 15.271733 -5.054929 121.809015 2.891504 -5.297596 11.137846 0.000000 -0.000000 0.000000 0.544924 -2.474444 38.356383 2.009327 -0.827935 6.073720 0.675590 -4.985812 2.759945 -12.929040 -6.649618 28.028793 14.433223 14.381164 -16.361953 -3.342606 12.243780 28.001105 -82.323966 33.937684 -42.035747 -0.241128 -18.183715 -22.639143 69.749525 2.496833 -1.176893 -8.635569 -0.001004 26.257150 69.639293 -43.506310 -15.249006 13.479234 31.697332 25.268038 -57.365977 21.782424 -12.921743 
1.128860 0.345968 0.271761 -2.952307 3.606561 10.308229 30.099783 -6.857691 -58.072698 -24.262681 1.408529 117.208206 3.414536 8.079531 -6.416640 0.000000 -0.000000 0.000000 -12.902389 4.531231 -62.461275 15.282673 -5.144681 122.135018 3.287194 -5.394318 11.525439 0.000000 -0.000000 0.000000 0.167977 -2.305105 39.731295 1.813743 -0.730200 4.003475 0.468103 -5.335664 3.477097 -12.599916 -7.634394 27.353969 15.035560 13.607922 -15.339770 -3.352613 12.701218 28.114096 -82.166251 35.030157 -42.442235 -1.045931 -18.389986 -22.529636 69.013298 1.924417 -1.780033 -8.047414 -0.034076 25.618330 68.871850 -43.552833 -14.884138 12.630302 31.274970 24.213597 -56.217066 22.612610 -12.272540 
1.129055 0.345102 0.268680 -3.128046 4.017762 10.763087 30.642798 -6.904680 -59.508921 -24.316190 1.598250 117.311227 3.346283 7.711672 -5.934820 0.000000 -0.000000 0.000000 -12.647793 4.974794 -63.310671 15.270136 -5.143172 122.173064 3.729010 -5.588555 11.868686 0.000000 -0.000000 0.000000 -0.823977 -2.081142 40.120892 2.139639 -0.933169 4.424404 0.771970 -5.088397 3.094685 -12.408505 -8.638329 26.924458 15.438347 12.429801 -14.890935 -4.210835 13.494161 27.920971 -82.186429 35.418845 -42.010968 -0.806574 -19.034304 -22.869462 67.887516 2.415090 -2.868192 -6.983339 -0.042384 24.765820 68.029846 -43.283128 -14.530457 11.296951 30.902857 22.761593 -54.455840 23.055826 -11.290711 
1.129078 0.345512 0.267332 -3.150570 4.514021 11.168785 31.106225 -7.145552 -60.612851 -24.303535 1.777232 117.166302 3.222414 7.446942 -5.488184 0.000000 -0.000000 0.000000 -12.527928 5.538755 -63.655624 15.150305 -5.108726 122.018767 4.173078 -5.793501 11.998920 0.000000 -0.000000 0.000000 -1.680363 -1.506738 40.689714 2.469841 -1.029733 4.441478 0.991836 -5.085905 2.786759 -11.925043 -9.524360 26.955069 15.889627 10.497443 -14.172210 -4.859781 14.216367 27.887575 -82.080423 35.513404 -41.132607 -0.347745 -19.744476 -23.345386 66.845433 3.114972 -4.158384 -5.640575 -0.549629 23.653983 66.889719 -42.982119 -13.568838 9.772733 30.310794 21.424769 -52.887579 23.251879 -9.983404 
